# xmcd
#
# Track frame offsets:
#	150
#	18512
#	39355
#	69427
#	87550
#	108252
#	122682
#	145782
#	165902
#	192182
#
# Disc length: 2853 seconds
#
# Revision: 1
# Processed by: cddbd v1.4PL0 Copyright (c) Steve Scherf et al.
# Submitted via: audiograbber 1.81.03
#
DISCID=7a0b230a
DTITLE=Joey Gilmore - Just Call Me "Joey"
DYEAR=1995
DGENRE=Blues
TTITLE0=Chip Off The Old Block
TTITLE1=Letting A Good Thing Go Bad
TTITLE2=Bit Off More Than I Could Chew
TTITLE3=Baby You're Cookin'
TTITLE4=A Hit Dog Will Holler
TTITLE5=Smidget
TTITLE6=Hard Pill To Swallow
TTITLE7=Before The Bullets Fly
TTITLE8=Last Clean Dress
TTITLE9=Pin-Up Queen
EXTD=
EXTT0=
EXTT1=
EXTT2=
EXTT3=
EXTT4=
EXTT5=
EXTT6=
EXTT7=
EXTT8=
EXTT9=
PLAYORDER=
